<?xml version="1.0" encoding="utf-8"?>
<!-- Generator: Adobe Illustrator 26.0.2, SVG Export Plug-In . SVG Version: 6.00 Build 0)  -->
<svg version="1.1" id="Warstwa_1" xmlns="http://www.w3.org/2000/svg" xmlns:xlink="http://www.w3.org/1999/xlink" x="0px" y="0px"
	 viewBox="0 0 430 430" style="enable-background:new 0 0 430 430;" xml:space="preserve">
<style type="text/css">
	.st0{fill:#3a3347;}
	.st1{fill:#646E78;}
	.st2{opacity:0.5;fill:#3a3347;}
	.st3{opacity:0.5;fill:#646E78;}
	.st4{fill:#92140c;}
	.st5{fill:#090B2E;}
	.st6{fill:#4BB3FD;}
	.st7{fill:#ebe6ef;}
	.st8{opacity:0.5;fill:#92140c;}
	.st9{fill:#FFC738;}
	.st10{fill:none;stroke:#090B2E;stroke-width:7;stroke-linecap:round;stroke-linejoin:round;stroke-miterlimit:10;}
	.st11{fill:#b26836;}
	.st12{opacity:0.5;fill:#b26836;}
	.st13{fill:#F9C9C0;}
	.st14{opacity:0.5;fill:#F9C9C0;}
	.st15{opacity:0.5;fill:#ebe6ef;}
	.st16{opacity:0.5;}
	.st17{fill:#2CA58D;}
	.st18{opacity:0.5;fill:#4BB3FD;}
	.st19{opacity:0.5;fill:#2CA58D;}
	.st20{opacity:0.5;fill:#FFC738;}
	.st21{fill:#F24C00;}
	.st22{opacity:0.5;fill:#F24C00;}
	.st23{fill:#F28BA8;}
</style>
<path class="st7" d="M306.79,142.75V95.48l-47.44-47.44H148.48c-1.66,0-3,1.34-3,3v91.4v72.99h161.31V142.75z"/>
<path class="st15" d="M306.79,95.48h-44.44c-1.66,0-3-1.34-3-3V48.04L306.79,95.48z"/>
<path class="st4" d="M336,185.12v87.23l-9.58,68.19c-2.45,17.46-15.53,31.53-32.76,35.23c-38.42,8.27-96.49,8.25-135.01-0.03
	c-17.24-3.71-30.35-17.77-32.8-35.24l-9.57-68.15v-87.23H336z"/>
<path class="st8" d="M336,272.35H135.08l9.57,68.15c2.45,17.47,15.56,31.53,32.8,35.24c16.78,3.61,37.28,5.65,58.24,6.11
	c-27.21,0.61-55.25-1.43-77.04-6.11c-17.24-3.71-30.35-17.77-32.8-35.24l-9.57-68.15h-0.01v-87.23H336V272.35z"/>
<g>
	<g>
		<path class="st7" d="M195.83,305.29h-0.14c-3.31,0-6-2.69-6-6s2.69-6,6-6h0.14c3.31,0,6,2.69,6,6S199.14,305.29,195.83,305.29z"/>
		<path class="st7" d="M255.22,305.29h-0.14c-3.31,0-6-2.69-6-6s2.69-6,6-6h0.14c3.31,0,6,2.69,6,6S258.53,305.29,255.22,305.29z"/>
		<path class="st7" d="M225.52,305.29h-0.14c-3.31,0-6-2.69-6-6s2.69-6,6-6h0.14c3.31,0,6,2.69,6,6S228.84,305.29,225.52,305.29z"/>
		<path class="st7" d="M284.91,305.29h-0.14c-3.31,0-6-2.69-6-6s2.69-6,6-6h0.14c3.31,0,6,2.69,6,6S288.22,305.29,284.91,305.29z"/>
		<path class="st7" d="M166.13,305.29H166c-3.31,0-6-2.69-6-6s2.69-6,6-6h0.14c3.31,0,6,2.69,6,6S169.45,305.29,166.13,305.29z"/>
	</g>
	<g>
		<g>
			<path class="st7" d="M181.98,333.15h-0.14c-3.31,0-6-2.69-6-6s2.69-6,6-6h0.14c3.31,0,6,2.69,6,6S185.29,333.15,181.98,333.15z"
				/>
			<path class="st7" d="M241.36,333.15h-0.14c-3.31,0-6-2.69-6-6s2.69-6,6-6h0.14c3.31,0,6,2.69,6,6S244.68,333.15,241.36,333.15z"
				/>
			<path class="st7" d="M211.67,333.15h-0.14c-3.31,0-6-2.69-6-6s2.69-6,6-6h0.14c3.31,0,6,2.69,6,6S214.98,333.15,211.67,333.15z"
				/>
			<path class="st7" d="M271.06,333.15h-0.14c-3.31,0-6-2.69-6-6s2.69-6,6-6h0.14c3.31,0,6,2.69,6,6S274.37,333.15,271.06,333.15z"
				/>
			<path class="st7" d="M152.28,333.15h-0.14c-3.31,0-6-2.69-6-6s2.69-6,6-6h0.14c3.31,0,6,2.69,6,6S155.59,333.15,152.28,333.15z"
				/>
		</g>
		<path class="st7" d="M300.13,333.15h-0.14c-3.31,0-6-2.69-6-6s2.69-6,6-6h0.14c3.31,0,6,2.69,6,6S303.44,333.15,300.13,333.15z"/>
	</g>
	<g>
		<path class="st7" d="M225.52,361.02h-0.14c-3.31,0-6-2.69-6-6s2.69-6,6-6h0.14c3.31,0,6,2.69,6,6S228.84,361.02,225.52,361.02z"/>
		<path class="st7" d="M255.22,361.02h-0.14c-3.31,0-6-2.69-6-6s2.69-6,6-6h0.14c3.31,0,6,2.69,6,6S258.53,361.02,255.22,361.02z"/>
		<path class="st7" d="M195.83,361.02h-0.14c-3.31,0-6-2.69-6-6s2.69-6,6-6h0.14c3.31,0,6,2.69,6,6S199.14,361.02,195.83,361.02z"/>
	</g>
</g>
<path class="st0" d="M370.42,167.44h-22.5c-1.93,0-3.5-1.57-3.5-3.5s1.57-3.5,3.5-3.5h22.5c1.93,0,3.5,1.57,3.5,3.5
	S372.36,167.44,370.42,167.44z"/>
<path class="st11" d="M370.42,179.03c-1.93,0-3.5-1.57-3.5-3.5v-23.2c0-1.93,1.57-3.5,3.5-3.5s3.5,1.57,3.5,3.5v23.2
	C373.92,177.47,372.36,179.03,370.42,179.03z"/>
<path class="st0" d="M59.58,236.45c-0.39,0-0.78-0.06-1.17-0.2c-1.82-0.64-2.78-2.64-2.14-4.47l24.36-69.01
	c0.49-1.4,1.82-2.33,3.3-2.33h20.42c1.93,0,3.5,1.57,3.5,3.5s-1.57,3.5-3.5,3.5H86.41l-23.53,66.68
	C62.37,235.55,61.02,236.45,59.58,236.45z"/>
<path class="st11" d="M347.92,155.96v15.95c0,7.27-5.94,13.21-13.21,13.21h-83.63l13.65,47.62c0.29,1.04,0.03,2.18-0.74,2.93
	c-13.79,13.43-61.93,13.43-75.71,0c-0.78-0.75-1.04-1.89-0.74-2.93l13.64-47.62h-83.63c-7.26,0-13.2-5.94-13.2-13.21v-15.95
	c0-7.27,5.94-13.21,13.2-13.21h217.16C341.98,142.75,347.92,148.69,347.92,155.96z"/>
<path class="st12" d="M206.4,185.12l-15.16,52.9c-1.06-0.7-2.02-1.45-2.85-2.24c-0.82-0.78-1.16-1.94-0.84-3.03l13.64-47.62H206.4z"
	/>
<path class="st12" d="M136.36,185.12h-18.8c-7.26,0-13.21-5.94-13.21-13.21v-15.95c0-7.27,5.95-13.21,13.21-13.21h18.8
	c-7.26,0-13.2,5.94-13.2,13.21v15.95C123.16,179.18,129.1,185.12,136.36,185.12z"/>
</svg>
